<svg width="236" height="24" viewBox="0 0 236 24" fill="none" xmlns="http://www.w3.org/2000/svg">
<g id="merkl-powered-dark-BG 2" clip-path="url(#clip0_1103_8437)">
<path id="Vector" d="M151.536 7.58789H143.55V11.4779H151.536V7.58789Z" fill="#B9AAFD"/>
<path id="Vector_2" d="M156.195 14.0684H148.209V18.6067H156.195V14.0684Z" fill="white"/>
<path id="Vector_3" d="M141.553 0.453125H133.567V4.3431H141.553V0.453125Z" fill="white"/>
<path id="Vector_4" d="M156.195 21.2012H148.209V23.7945H156.195V21.2012Z" fill="#B9AAFD"/>
<path id="Vector_5" d="M146.212 14.0684H138.892V18.6067H146.212V14.0684Z" fill="white"/>
<path id="Vector_6" d="M146.212 21.2012H138.892V23.7945H146.212V21.2012Z" fill="white"/>
<path id="Vector_7" d="M136.23 14.0684H128.909V18.6067H136.23V14.0684Z" fill="#B9AAFD"/>
<path id="Vector_8" d="M136.23 21.2012H128.909V23.7945H136.23V21.2012Z" fill="white"/>
<path id="Vector_9" d="M126.913 14.0684H118.927V18.6067H126.913V14.0684Z" fill="white"/>
<path id="Vector_10" d="M131.572 7.58789H123.586V11.4779H131.572V7.58789Z" fill="white"/>
<path id="Vector_11" d="M126.913 21.2012H118.927V23.7945H126.913V21.2012Z" fill="white"/>
<path id="Vector_12" d="M164.181 16.9588V7.58594H166.358L168.888 16.2493H169.065L171.596 7.58594H173.773V16.9588H172.671V8.32239H172.48L169.963 16.9588H167.99L165.473 8.32239H165.283V16.9588H164.181Z" fill="white"/>
<path id="Vector_13" d="M178.946 16.9588V7.58594H184.811V8.60359H180.089V11.7368H184.43V12.7545H180.089V15.9412H184.879V16.9588H178.946Z" fill="white"/>
<path id="Vector_14" d="M189.605 16.9588V7.58594H193.456C194.045 7.58594 194.562 7.68859 195.007 7.89391C195.46 8.09029 195.814 8.37597 196.068 8.75087C196.322 9.11687 196.449 9.55874 196.449 10.0765V10.2238C196.449 10.8397 196.3 11.3262 196 11.6833C195.701 12.0403 195.347 12.2814 194.939 12.4063V12.5938C195.265 12.6027 195.533 12.7099 195.742 12.9151C195.959 13.1115 196.068 13.4107 196.068 13.8122V16.9588H194.939V13.9462C194.939 13.6785 194.862 13.4732 194.708 13.3303C194.562 13.1875 194.34 13.1159 194.041 13.1159H190.748V16.9588H189.605ZM190.748 12.0984H193.347C193.973 12.0984 194.454 11.9511 194.789 11.6565C195.134 11.353 195.306 10.9334 195.306 10.3978V10.3041C195.306 9.76852 195.139 9.35342 194.803 9.05884C194.467 8.75534 193.982 8.60359 193.347 8.60359H190.748V12.0984Z" fill="white"/>
<path id="Vector_15" d="M201.183 16.9588V7.58594H202.325V11.6699H202.516L206.543 7.58594H208.067L203.428 12.2189L208.23 16.9588H206.666L202.516 12.7946H202.325V16.9588H201.183Z" fill="white"/>
<path id="Vector_16" d="M212.48 16.9588V7.58594H213.624V15.9412H218.44V16.9588H212.48Z" fill="white"/>
<path id="Vector_17" d="M164.181 24.1259V23.6791H164.625V21.3157H164.181V20.8691H165.859C166.058 20.8691 166.231 20.903 166.379 20.9713C166.527 21.0364 166.642 21.131 166.724 21.2553C166.809 21.3761 166.852 21.5204 166.852 21.688V21.7345C166.852 21.8833 166.823 22.0058 166.766 22.1018C166.71 22.1981 166.64 22.2726 166.559 22.3254C166.48 22.3781 166.404 22.4152 166.331 22.437V22.5115C166.404 22.5301 166.481 22.5672 166.563 22.6232C166.648 22.6759 166.719 22.7501 166.776 22.8464C166.836 22.9424 166.866 23.0682 166.866 23.2231V23.2697C166.866 23.4497 166.823 23.6031 166.738 23.7304C166.653 23.8576 166.535 23.9551 166.384 24.0234C166.235 24.0918 166.064 24.1259 165.868 24.1259H164.181ZM165.14 23.67H165.807C165.977 23.67 166.111 23.6296 166.209 23.5489C166.306 23.4682 166.355 23.3566 166.355 23.214V23.1722C166.355 23.0293 166.306 22.9177 166.209 22.837C166.114 22.7563 165.98 22.7162 165.807 22.7162H165.14V23.67ZM165.14 22.2556H165.807C165.968 22.2556 166.097 22.2167 166.194 22.1392C166.292 22.0585 166.341 21.9498 166.341 21.8135V21.7669C166.341 21.6305 166.292 21.5236 166.194 21.4459C166.1 21.3652 165.971 21.3251 165.807 21.3251H165.14V22.2556Z" fill="white"/>
<path id="Vector_18" d="M169.075 24.1259V22.9442L167.926 20.8691H168.503L169.297 22.3439H169.368L170.162 20.8691H170.739L169.59 22.9442V24.1259H169.075Z" fill="white"/>
<path id="Vector_19" d="M173.688 24.1259L174.633 20.8691H175.531L176.472 24.1259H175.947L175.73 23.358H174.434L174.217 24.1259H173.688ZM174.562 22.893H175.602L175.12 21.1808H175.044L174.562 22.893Z" fill="#B9AAFD"/>
<path id="Vector_20" d="M177.771 24.1259V20.8691H178.754L179.652 23.7907H179.728V20.8691H180.233V24.1259H179.25L178.352 21.1993H178.277V24.1259H177.771Z" fill="#B9AAFD"/>
<path id="Vector_21" d="M182.924 24.192C182.688 24.192 182.477 24.1422 182.291 24.0429C182.105 23.9407 181.958 23.7917 181.851 23.5964C181.744 23.4011 181.69 23.1622 181.69 22.8798V22.1169C181.69 21.6919 181.809 21.3679 182.045 21.1446C182.281 20.9181 182.601 20.8047 183.005 20.8047C183.402 20.8047 183.707 20.9119 183.922 21.1257C184.136 21.3366 184.243 21.6206 184.243 21.9773V22.0005H183.738V21.9634C183.738 21.83 183.711 21.7104 183.657 21.605C183.604 21.4966 183.523 21.4112 183.416 21.3493C183.309 21.2872 183.172 21.2562 183.005 21.2562C182.753 21.2562 182.556 21.3322 182.414 21.4842C182.272 21.6329 182.201 21.8409 182.201 22.1075V22.8892C182.201 23.1528 182.272 23.3622 182.414 23.5172C182.556 23.6691 182.754 23.7451 183.009 23.7451C183.262 23.7451 183.446 23.6771 183.563 23.5404C183.679 23.4041 183.738 23.2273 183.738 23.0102V22.9496H182.849V22.5169H184.243V24.1269H183.771V23.7964H183.695C183.667 23.8553 183.624 23.916 183.567 23.9778C183.514 24.04 183.435 24.0912 183.331 24.1313C183.23 24.1716 183.095 24.192 182.924 24.192Z" fill="#B9AAFD"/>
<path id="Vector_22" d="M185.751 24.1259V20.8691H186.261V23.67H187.855V24.1259H185.751Z" fill="#B9AAFD"/>
<path id="Vector_23" d="M189.175 24.1259V20.8691H191.26V21.3251H189.686V22.2603H191.127V22.7162H189.686V23.67H191.283V24.1259H189.175Z" fill="#B9AAFD"/>
<path id="Vector_24" d="M194.722 24.1259V20.8691H195.232V23.67H196.825V24.1259H194.722Z" fill="#B9AAFD"/>
<path id="Vector_25" d="M197.898 24.1259L198.844 20.8691H199.742L200.683 24.1259H200.158L199.941 23.358H198.645L198.428 24.1259H197.898ZM198.773 22.893H199.813L199.331 21.1808H199.255L198.773 22.893Z" fill="#B9AAFD"/>
<path id="Vector_26" d="M201.859 24.1259V23.6791H202.304V21.3157H201.859V20.8691H203.538C203.736 20.8691 203.91 20.903 204.058 20.9713C204.206 21.0364 204.321 21.131 204.403 21.2553C204.488 21.3761 204.53 21.5204 204.53 21.688V21.7345C204.53 21.8833 204.502 22.0058 204.445 22.1018C204.389 22.1981 204.319 22.2726 204.237 22.3254C204.159 22.3781 204.083 22.4152 204.01 22.437V22.5115C204.083 22.5301 204.16 22.5672 204.242 22.6232C204.327 22.6759 204.398 22.7501 204.455 22.8464C204.515 22.9424 204.545 23.0682 204.545 23.2231V23.2697C204.545 23.4497 204.502 23.6031 204.417 23.7304C204.332 23.8576 204.214 23.9551 204.062 24.0234C203.914 24.0918 203.742 24.1259 203.547 24.1259H201.859ZM202.819 23.67H203.486C203.656 23.67 203.79 23.6296 203.888 23.5489C203.985 23.4682 204.034 23.3566 204.034 23.214V23.1722C204.034 23.0293 203.985 22.9177 203.888 22.837C203.793 22.7563 203.659 22.7162 203.486 22.7162H202.819V23.67ZM202.819 22.2556H203.486C203.646 22.2556 203.776 22.2167 203.873 22.1392C203.971 22.0585 204.02 21.9498 204.02 21.8135V21.7669C204.02 21.6305 203.971 21.5236 203.873 21.4459C203.779 21.3652 203.65 21.3251 203.486 21.3251H202.819V22.2556Z" fill="#B9AAFD"/>
<path id="Vector_27" d="M207.094 24.192C206.845 24.192 206.624 24.1484 206.432 24.0618C206.24 23.9749 206.089 23.8476 205.978 23.68C205.871 23.5095 205.817 23.3033 205.817 23.0612V22.9451H206.323V23.0612C206.323 23.2909 206.393 23.463 206.531 23.5778C206.673 23.6924 206.861 23.7498 207.094 23.7498C207.33 23.7498 207.508 23.7018 207.628 23.6058C207.748 23.5066 207.808 23.3793 207.808 23.2241C207.808 23.1219 207.779 23.0379 207.723 22.9728C207.666 22.9077 207.586 22.8565 207.482 22.8194C207.378 22.779 207.253 22.7419 207.108 22.7077L206.933 22.6659C206.722 22.6161 206.538 22.5558 206.38 22.4845C206.226 22.41 206.106 22.3122 206.021 22.1914C205.936 22.0703 205.893 21.9151 205.893 21.726C205.893 21.5337 205.941 21.3693 206.035 21.233C206.133 21.0963 206.267 20.9908 206.437 20.9166C206.607 20.8421 206.807 20.8047 207.037 20.8047C207.267 20.8047 207.472 20.8436 207.652 20.921C207.835 20.9988 207.978 21.1134 208.082 21.2654C208.186 21.4173 208.238 21.6082 208.238 21.8377V22.0053H207.732V21.8377C207.732 21.698 207.702 21.5849 207.642 21.498C207.586 21.4112 207.505 21.3475 207.401 21.3072C207.297 21.2671 207.176 21.2468 207.037 21.2468C206.836 21.2468 206.678 21.2886 206.564 21.3726C206.454 21.453 206.399 21.5664 206.399 21.7122C206.399 21.8114 206.423 21.8936 206.47 21.9587C206.52 22.0206 206.593 22.0718 206.687 22.1122C206.782 22.1525 206.9 22.1882 207.042 22.2191L207.217 22.2612C207.431 22.3075 207.62 22.3681 207.784 22.4427C207.948 22.5139 208.077 22.6114 208.172 22.7357C208.266 22.8597 208.314 23.0194 208.314 23.215C208.314 23.4102 208.263 23.5808 208.162 23.7266C208.065 23.8724 207.924 23.9873 207.742 24.0709C207.559 24.1516 207.343 24.192 207.094 24.192Z" fill="#B9AAFD"/>
<path id="Vector_28" d="M19.834 16.92V9.25103H22.9344C23.4165 9.25103 23.8401 9.34596 24.2053 9.53588C24.5705 9.72577 24.859 9.99599 25.0708 10.3466C25.2826 10.6898 25.3885 11.0989 25.3885 11.5736V11.727C25.3885 12.1944 25.279 12.6035 25.0598 12.954C24.848 13.3047 24.5559 13.5748 24.1834 13.7648C23.8182 13.9548 23.4019 14.0496 22.9344 14.0496H21.1596V16.92H19.834ZM21.1596 12.8554H22.803C23.1828 12.8554 23.4859 12.7532 23.7123 12.5487C23.946 12.3442 24.0629 12.063 24.0629 11.7051V11.5955C24.0629 11.2376 23.9497 10.9564 23.7233 10.7519C23.4968 10.5474 23.1901 10.4452 22.803 10.4452H21.1596V12.8554ZM31.4529 17.0734C30.5032 17.0734 29.7439 16.8104 29.1741 16.2846C28.6117 15.7515 28.3305 14.988 28.3305 13.9948V12.1762C28.3305 11.1829 28.6117 10.4233 29.1741 9.8974C29.7439 9.36422 30.5032 9.09766 31.4529 9.09766C32.4095 9.09766 33.1692 9.36422 33.7318 9.8974C34.294 10.4233 34.5753 11.1829 34.5753 12.1762V13.9948C34.5753 14.988 34.294 15.7515 33.7318 16.2846C33.1692 16.8104 32.4095 17.0734 31.4529 17.0734ZM31.4529 15.8902C32.0225 15.8902 32.4643 15.7259 32.7786 15.3972C33.1 15.0611 33.2605 14.6084 33.2605 14.0387V12.1324C33.2605 11.5626 33.1 11.1135 32.7786 10.7848C32.4643 10.4488 32.0225 10.2808 31.4529 10.2808C30.8906 10.2808 30.4485 10.4488 30.1271 10.7848C29.8131 11.1135 29.6561 11.5626 29.6561 12.1324V14.0387C29.6561 14.6084 29.8131 15.0611 30.1271 15.3972C30.4485 15.7259 30.8906 15.8902 31.4529 15.8902ZM38.5738 16.92L37.5111 9.25103H38.8147L39.6474 16.0107H39.8336L40.9072 9.25103H43.197L44.2706 16.0107H44.4567L45.2785 9.25103H46.5931L45.5195 16.92H43.2297L42.1452 10.0289H41.959L40.8633 16.92H38.5738ZM49.7659 16.92V9.25103H54.6521V10.4452H51.0917V12.461H54.3455V13.6552H51.0917V15.7259H54.7069V16.92H49.7659ZM57.9351 16.92V9.25103H61.2108C61.693 9.25103 62.113 9.335 62.4708 9.50301C62.8287 9.67099 63.1062 9.90836 63.3035 10.2151C63.5079 10.5146 63.6102 10.8761 63.6102 11.2997V11.4202C63.6102 11.895 63.497 12.2748 63.2705 12.5596C63.044 12.8445 62.7701 13.0526 62.4488 13.1839V13.3595C62.7339 13.3739 62.9566 13.4726 63.1171 13.6552C63.2853 13.8378 63.3692 14.0823 63.3692 14.3892V16.92H62.0544V14.5754C62.0544 14.3928 62.0034 14.2467 61.9012 14.1371C61.8061 14.0205 61.6491 13.9618 61.4299 13.9618H59.2609V16.92H57.9351ZM59.2609 12.7678H61.0794C61.4591 12.7678 61.7551 12.6692 61.9669 12.472C62.186 12.2675 62.2956 11.9972 62.2956 11.6613V11.5626C62.2956 11.2194 62.1896 10.9491 61.9778 10.7519C61.766 10.5474 61.4664 10.4452 61.0794 10.4452H59.2609V12.7678ZM66.9388 16.92V9.25103H71.825V10.4452H68.2646V12.461H71.5184V13.6552H68.2646V15.7259H71.8798V16.92H66.9388ZM74.8562 16.92V15.7586H75.8859V10.4123H74.8562V9.25103H77.9784C79.001 9.25103 79.7825 9.51031 80.323 10.0289C80.8634 10.5474 81.1338 11.3253 81.1338 12.3624V13.8087C81.1338 14.8458 80.8634 15.6237 80.323 16.1421C79.7825 16.6608 79.001 16.92 77.9784 16.92H74.8562ZM77.2008 15.7259H77.9896C78.6102 15.7259 79.0703 15.565 79.3698 15.2437C79.6694 14.9223 79.819 14.4587 79.819 13.8523V12.3296C79.819 11.7087 79.6694 11.2413 79.3698 10.9272C79.0703 10.6059 78.6102 10.4452 77.9896 10.4452H77.2008V15.7259ZM89.0975 16.92V15.7586H90.1275V10.4123H89.0975V9.25103H93.0196C93.4797 9.25103 93.8815 9.33135 94.2249 9.49205C94.5754 9.64542 94.8455 9.86819 95.0355 10.1603C95.2328 10.4452 95.3312 10.7885 95.3312 11.1902V11.2888C95.3312 11.6393 95.2655 11.9279 95.1342 12.1543C95.0028 12.3807 94.8455 12.556 94.6629 12.6801C94.4806 12.8043 94.305 12.8919 94.1371 12.9431V13.1295C94.305 13.173 94.4841 13.257 94.6741 13.3813C94.8711 13.4982 95.0355 13.6735 95.1669 13.9071C95.3059 14.1336 95.3751 14.4293 95.3751 14.7945V14.9041C95.3751 15.3206 95.2729 15.682 95.0685 15.9886C94.8711 16.2882 94.5972 16.5182 94.2467 16.679C93.9036 16.8395 93.5053 16.92 93.0526 16.92H89.0975ZM91.442 15.7259H92.8992C93.2497 15.7259 93.5274 15.6419 93.7318 15.4737C93.9436 15.2985 94.0497 15.0537 94.0497 14.7397V14.6411C94.0497 14.3271 93.9472 14.0861 93.7427 13.9182C93.5383 13.7427 93.257 13.6552 92.8992 13.6552H91.442V15.7259ZM91.442 12.461H92.8883C93.2243 12.461 93.4944 12.377 93.6989 12.209C93.9106 12.041 94.0167 11.8073 94.0167 11.5079V11.3983C94.0167 11.0989 93.9106 10.8652 93.6989 10.6972C93.4944 10.5292 93.2243 10.4452 92.8883 10.4452H91.442V12.461ZM100.518 16.92V14.214L97.8779 9.25103H99.3568L101.088 12.6363H101.274L103.005 9.25103H104.473L101.833 14.214V16.92H100.518Z" fill="#B9AAFD"/>
</g>
<defs>
<clipPath id="clip0_1103_8437">
<rect width="235.636" height="24" fill="white" transform="translate(0.181641)"/>
</clipPath>
</defs>
</svg>
