<svg width="265" height="38" viewBox="0 0 265 38" fill="none" xmlns="http://www.w3.org/2000/svg">
<path d="M9.13313 9.62988C12.0311 9.62988 14.3426 11.3318 14.3426 14.3793C14.3426 17.4268 12.0311 19.1518 9.13313 19.1518H4.00413V26.1898H1.91113V9.62988H9.13313ZM4.00413 17.3693H8.81113C10.8811 17.3693 12.2611 16.2883 12.2611 14.3908C12.2611 12.4818 10.8811 11.4123 8.81113 11.4123H4.00413V17.3693ZM15.3327 20.3363C15.3327 16.3803 17.7362 14.1953 21.3012 14.1953C24.8547 14.1953 27.2697 16.3803 27.2697 20.3363C27.2697 24.2808 24.8547 26.4658 21.3012 26.4658C17.7362 26.4658 15.3327 24.2808 15.3327 20.3363ZM17.3797 20.3363C17.3797 23.2343 18.9552 24.8098 21.3012 24.8098C23.6357 24.8098 25.2112 23.2343 25.2112 20.3363C25.2112 17.4268 23.6357 15.8628 21.3012 15.8628C18.9552 15.8628 17.3797 17.4268 17.3797 20.3363ZM28.5838 14.4713H30.5158L32.8963 23.8783H33.0918L35.9438 14.4713H38.1863L41.0498 23.8783H41.2338L43.6028 14.4713H45.4773V14.8163L42.4068 26.1898H39.9803L37.1283 16.8173H36.9443L34.0923 26.1898H31.6543L28.5838 14.8163V14.4713ZM46.8229 20.3248C46.8229 16.3458 49.0309 14.1953 52.5039 14.1953C55.9884 14.1953 57.9089 16.3688 57.9089 19.8188V20.8308H48.7779C48.8239 23.2688 50.2269 24.8328 52.5039 24.8328C54.6659 24.8328 55.6664 23.6023 55.8504 22.5213H57.6674V22.8663C57.4029 24.3038 56.0459 26.4658 52.5269 26.4658C49.0539 26.4658 46.8229 24.3153 46.8229 20.3248ZM48.8124 19.2323H55.9769C55.9539 17.2313 54.7694 15.8168 52.4924 15.8168C50.2614 15.8168 48.9734 17.2543 48.8124 19.2323ZM60.5518 14.4713H62.5068V15.8743H62.6908C63.0933 15.0463 63.8293 14.4253 65.5888 14.4253H67.2218V16.1733H65.6348C63.4383 16.1733 62.5758 17.3808 62.5758 19.7613V26.1898H60.5518V14.4713ZM68.3181 20.3248C68.3181 16.3458 70.5261 14.1953 73.9991 14.1953C77.4836 14.1953 79.4041 16.3688 79.4041 19.8188V20.8308H70.2731C70.3191 23.2688 71.7221 24.8328 73.9991 24.8328C76.1611 24.8328 77.1616 23.6023 77.3456 22.5213H79.1626V22.8663C78.8981 24.3038 77.5411 26.4658 74.0221 26.4658C70.5491 26.4658 68.3181 24.3153 68.3181 20.3248ZM70.3076 19.2323H77.4721C77.4491 17.2313 76.2646 15.8168 73.9876 15.8168C71.7566 15.8168 70.4686 17.2543 70.3076 19.2323ZM92.8339 9.62988V26.1898H90.8674V24.5798H90.6834C89.7979 25.9253 88.3834 26.4543 86.7159 26.4543C83.6684 26.4543 81.3454 24.3843 81.3454 20.3363C81.3454 16.2768 83.6684 14.2068 86.7159 14.2068C88.3489 14.2068 89.7519 14.7243 90.6259 16.0238H90.8099V9.62988H92.8339ZM83.3809 20.3363C83.3809 23.1768 84.8989 24.7753 87.1299 24.7753C89.3724 24.7753 90.8904 23.1768 90.8904 20.3363C90.8904 17.4843 89.3724 15.8858 87.1299 15.8858C84.8989 15.8858 83.3809 17.4843 83.3809 20.3363ZM102.374 9.62988H104.398V16.0238H104.582C105.456 14.7243 106.871 14.2068 108.492 14.2068C111.54 14.2068 113.874 16.2768 113.874 20.3363C113.874 24.3843 111.54 26.4543 108.492 26.4543C106.836 26.4543 105.41 25.9253 104.536 24.5798H104.352V26.1898H102.374V9.62988ZM104.329 20.3363C104.329 23.1768 105.847 24.7753 108.078 24.7753C110.321 24.7753 111.839 23.1768 111.839 20.3363C111.839 17.4843 110.321 15.8858 108.078 15.8858C105.847 15.8858 104.329 17.4843 104.329 20.3363ZM115.002 14.4713H117.06L120.706 23.7748H120.89L124.535 14.4713H126.536V14.8163L119.924 30.7898H117.911V30.4448L119.717 26.2128L115.002 14.8163V14.4713Z" fill="white"/>
<path opacity="0.8" d="M139.075 24.469V33.8385C139.075 34.4153 139.564 34.6547 139.715 34.7091C139.867 34.7744 140.377 34.9159 140.833 34.4915L147.921 27.6799C148.524 27.0999 149.107 26.4902 149.545 25.7768C149.751 25.4414 149.836 25.2525 149.836 25.2525C150.27 24.3711 150.27 23.5222 149.847 22.6734C149.218 21.4111 147.612 20.127 145.193 18.9082L141.061 21.2152C139.835 21.9117 139.075 23.1414 139.075 24.469Z" fill="white"/>
<path d="M135 3.62976V13.4563C135 14.686 135.824 15.7742 136.996 16.1225C140.988 17.276 147.941 19.7571 149.623 23.4026C149.839 23.8814 149.97 24.3494 150.013 24.8391C151.13 22.8041 151.64 20.4644 151.402 18.0921C151.076 14.7295 149.297 11.6716 146.52 9.72376L136.616 2.79183C136.443 2.66124 136.237 2.59595 136.031 2.59595C135.857 2.59595 135.705 2.62859 135.542 2.71565C135.217 2.90065 135 3.238 135 3.62976Z" fill="white"/>
<path opacity="0.8" d="M165.438 24.469V33.8385C165.438 34.4153 164.95 34.6547 164.798 34.7091C164.647 34.7744 164.137 34.9159 163.681 34.4915L156.428 27.5215C155.934 27.0469 155.463 26.5451 155.091 25.97C154.796 25.5148 154.678 25.2525 154.678 25.2525C154.244 24.3711 154.244 23.5222 154.667 22.6734C155.296 21.4111 156.901 20.127 159.32 18.9082L163.453 21.2152C164.69 21.9117 165.438 23.1414 165.438 24.469Z" fill="white"/>
<path d="M169.521 3.62878V13.4554C169.521 14.6851 168.696 15.7733 167.524 16.1215C163.533 17.275 156.579 19.7562 154.898 23.4017C154.681 23.8805 154.551 24.3484 154.507 24.8381C153.39 22.8032 152.88 20.4635 153.119 18.0912C153.444 14.7286 155.223 11.6707 158 9.72281L167.904 2.79085C168.078 2.66026 168.284 2.59497 168.49 2.59497C168.663 2.59497 168.815 2.62762 168.978 2.71468C169.303 2.89967 169.521 3.23702 169.521 3.62878Z" fill="white"/>
<path d="M179.793 9.62988H182.472L188.682 23.9933H188.866L195.076 9.62988H197.71V26.1898H195.755V13.0108H195.571L189.878 26.1898H187.624L181.932 13.0108H181.748V26.1898H179.793V9.62988ZM200.559 20.3363C200.559 16.3803 202.963 14.1953 206.528 14.1953C210.081 14.1953 212.496 16.3803 212.496 20.3363C212.496 24.2808 210.081 26.4658 206.528 26.4658C202.963 26.4658 200.559 24.2808 200.559 20.3363ZM202.606 20.3363C202.606 23.2343 204.182 24.8098 206.528 24.8098C208.862 24.8098 210.438 23.2343 210.438 20.3363C210.438 17.4268 208.862 15.8628 206.528 15.8628C204.182 15.8628 202.606 17.4268 202.606 20.3363ZM215.119 14.4713H217.074V15.8743H217.258C217.66 15.0463 218.396 14.4253 220.156 14.4253H221.789V16.1733H220.202C218.005 16.1733 217.143 17.3808 217.143 19.7613V26.1898H215.119V14.4713ZM224.036 30.7898V14.4713H226.014V16.0928H226.198C227.072 14.7358 228.498 14.2068 230.154 14.2068C233.201 14.2068 235.536 16.2768 235.536 20.3363C235.536 24.3843 233.201 26.4543 230.154 26.4543C228.532 26.4543 227.118 25.9368 226.244 24.6373H226.06V30.7898H224.036ZM225.991 20.3363C225.991 23.1768 227.509 24.7753 229.74 24.7753C231.982 24.7753 233.5 23.1768 233.5 20.3363C233.5 17.4843 231.982 15.8858 229.74 15.8858C227.509 15.8858 225.991 17.4843 225.991 20.3363ZM238.164 9.62988H240.188V15.9203H240.372C241.211 14.6783 242.603 14.2068 244.247 14.2068C246.973 14.2068 248.698 15.5868 248.698 18.4503V26.1898H246.674V18.6458C246.674 16.7368 245.627 15.8973 243.799 15.8973C241.798 15.8973 240.188 17.0818 240.188 19.6463V26.1898H238.164V9.62988ZM251.231 20.3363C251.231 16.3803 253.634 14.1953 257.199 14.1953C260.753 14.1953 263.168 16.3803 263.168 20.3363C263.168 24.2808 260.753 26.4658 257.199 26.4658C253.634 26.4658 251.231 24.2808 251.231 20.3363ZM253.278 20.3363C253.278 23.2343 254.853 24.8098 257.199 24.8098C259.534 24.8098 261.109 23.2343 261.109 20.3363C261.109 17.4268 259.534 15.8628 257.199 15.8628C254.853 15.8628 253.278 17.4268 253.278 20.3363Z" fill="white"/>
</svg>
